<?xml version="1.0" encoding="utf-8"?>
<!-- Generator: Adobe Illustrator 22.0.0, SVG Export Plug-In . SVG Version: 6.00 Build 0)  -->
<svg version="1.1" id="Ebene_1" xmlns="http://www.w3.org/2000/svg" xmlns:xlink="http://www.w3.org/1999/xlink" x="0px" y="0px"
	 viewBox="0 0 715.5 126.8" style="enable-background:new 0 0 715.5 126.8;" xml:space="preserve">
<style type="text/css">
	.st0{display:none;}
	.st1{fill:#002D54;}
</style>
<g id="Ebene_1_1_" class="st0">
	
		<image style="display:inline;overflow:visible;opacity:0.5;enable-background:new    ;" width="237" height="44" xlink:href="6441E9A5.png"  transform="matrix(3.0765 0 0 3.0765 -111.7087 59.0908)">
	</image>
</g>
<g id="Ebene_2_1_">
	<path class="st1" d="M54.3,60.9l9.2-15.4c-2.8-2.1-4-3.2-4.5-3.7c-2.5-2.5-4.2-4.8-5.1-6.8s-1.3-4-1.3-6.1c0-3.3,1.2-6,3.5-8.3
		c2.4-2.3,5.5-3.4,9.4-3.4c3.1,0,5.9,0.8,8.5,2.3c1,0.6,2.2,1.5,3.5,2.8l6.2-10.5l3.1-5.2c-1.4-1.2-2.8-2.1-4.3-2.9
		c-1.6-0.9-3.4-1.7-5.1-2.4c-3.7-1.4-7.6-2.1-11.7-2.1c-5.6,0-10.9,1.3-15.7,4c-4.9,2.6-8.7,6.3-11.3,10.9c-2.7,4.6-4,9.7-4,15.3
		c0,7,2.3,13.5,6.7,19.5C43.3,51.6,47.6,55.6,54.3,60.9z"/>
	<path class="st1" d="M91.5,69.1L81,86.6c0.9,2.1,1.4,4.1,1.4,6.2c0,2.9-0.7,5.6-2.3,8.2c-0.2,0.4-0.5,0.7-0.7,1.1
		c-1.5,2.1-3.4,3.7-5.9,5.1c-1.9,1-3.9,1.7-6,2c-1.1,0.2-2.2,0.3-3.3,0.3h-0.7h-7.3H36.1h-3.2h-7.8H19V51.1H2v58.4v17.3h13h4.2H26
		h9.1H37h9.1h11h7.5l0,0c0.2,0,0.3,0,0.5,0c9.9,0,18.4-3.4,25.3-10.1s10.5-14.8,10.5-24c0-6.4-2-12.8-6.1-19
		C93.9,72.1,92.8,70.6,91.5,69.1z"/>
	<polygon class="st1" points="114.6,30.3 109.1,21 104.6,13.4 103.6,11.8 99.1,4.2 93.6,13.4 89,21 83.8,29.8 71,51.2 61.8,66.7 
		44.7,95.4 42,100 47.9,100 51.1,100 53,100 62.1,100 75,78.3 84.6,62.1 99.1,37.9 104.6,47.1 152,126.7 172.1,126.7 	"/>
	<ellipse class="st1" cx="10.6" cy="16.6" rx="9.8" ry="9.8"/>
	<g>
		<path class="st1" d="M216.7,24c-0.2,0.3-0.4,0.5-0.5,0.6s-0.4,0.2-0.7,0.2c-0.3,0-0.7-0.1-1.1-0.4s-0.9-0.6-1.5-1s-1.3-0.7-2.1-1
			s-1.8-0.4-3-0.4c-1.1,0-2,0.1-2.9,0.4s-1.5,0.7-2.1,1.2s-1,1.1-1.3,1.7s-0.4,1.4-0.4,2.2c0,1,0.3,1.8,0.8,2.5s1.2,1.2,2,1.7
			c0.8,0.5,1.8,0.9,2.8,1.2c1.1,0.3,2.1,0.7,3.2,1.1s2.2,0.8,3.2,1.3c1.1,0.5,2,1.1,2.8,1.8c0.8,0.7,1.5,1.6,2,2.7s0.8,2.4,0.8,3.9
			c0,1.6-0.3,3.2-0.8,4.6c-0.6,1.4-1.4,2.7-2.5,3.8c-1.1,1.1-2.4,1.9-4,2.5s-3.3,0.9-5.3,0.9c-1.2,0-2.4-0.1-3.5-0.4
			c-1.1-0.2-2.2-0.6-3.2-1s-1.9-0.9-2.8-1.5s-1.7-1.3-2.4-2l1.6-2.6c0.2-0.2,0.3-0.4,0.6-0.5c0.2-0.1,0.5-0.2,0.7-0.2
			c0.4,0,0.8,0.2,1.3,0.6s1.1,0.8,1.8,1.3c0.7,0.5,1.5,0.9,2.5,1.3s2.2,0.6,3.6,0.6c1.1,0,2.2-0.2,3.1-0.5s1.7-0.7,2.3-1.3
			c0.6-0.6,1.1-1.2,1.4-2s0.5-1.7,0.5-2.6c0-1.1-0.3-2-0.8-2.7s-1.2-1.3-2-1.7c-0.8-0.5-1.8-0.9-2.8-1.2c-1.1-0.3-2.1-0.7-3.2-1
			c-1.1-0.4-2.2-0.8-3.2-1.2c-1.1-0.5-2-1.1-2.8-1.8c-0.8-0.8-1.5-1.7-2-2.8c-0.5-1.1-0.8-2.5-0.8-4.2c0-1.3,0.3-2.6,0.8-3.9
			c0.5-1.2,1.3-2.4,2.3-3.3c1-1,2.2-1.7,3.7-2.3c1.5-0.6,3.1-0.9,5-0.9c2.1,0,4,0.3,5.8,1s3.3,1.6,4.6,2.9L216.7,24z"/>
		<path class="st1" d="M249.8,50.8v4.5h-23.1V18h23.1v4.5h-17.6v11.8h14.1v4.3h-14.1v12.2H249.8z"/>
		<path class="st1" d="M282.9,47.2c0.3,0,0.6,0.1,0.8,0.4l2.2,2.4c-1.5,1.8-3.4,3.2-5.6,4.2c-2.2,1-4.8,1.5-7.9,1.5
			c-2.7,0-5.1-0.5-7.3-1.4s-4.1-2.2-5.6-3.9c-1.5-1.7-2.7-3.7-3.6-6s-1.3-4.9-1.3-7.7c0-2.8,0.4-5.4,1.3-7.7c0.9-2.3,2.1-4.3,3.8-6
			c1.6-1.7,3.5-3,5.8-3.9c2.2-0.9,4.7-1.4,7.4-1.4c2.6,0,5,0.4,7.1,1.3s3.9,2,5.4,3.5l-1.8,2.6c-0.1,0.2-0.3,0.3-0.5,0.5
			c-0.2,0.1-0.4,0.2-0.7,0.2s-0.7-0.2-1.2-0.5c-0.4-0.3-1-0.7-1.7-1.1s-1.6-0.8-2.7-1.1c-1.1-0.3-2.4-0.5-3.9-0.5
			c-1.9,0-3.5,0.3-5.1,1c-1.5,0.6-2.9,1.6-4,2.8c-1.1,1.2-2,2.7-2.6,4.5c-0.6,1.8-0.9,3.8-0.9,6c0,2.3,0.3,4.3,1,6.1
			c0.6,1.8,1.5,3.3,2.6,4.5s2.4,2.2,4,2.8c1.5,0.6,3.2,1,4.9,1c1.1,0,2-0.1,2.9-0.2s1.6-0.3,2.4-0.6c0.7-0.3,1.4-0.6,2-1
			s1.3-0.9,1.9-1.5c0.1-0.1,0.3-0.2,0.4-0.3C282.6,47.3,282.7,47.2,282.9,47.2z"/>
		<path class="st1" d="M307.1,50.8c1.5,0,2.8-0.3,4-0.8s2.2-1.2,3-2.1s1.4-2,1.9-3.2c0.4-1.3,0.6-2.6,0.6-4.2V17.9h5.5v22.6
			c0,2.2-0.3,4.2-1,6c-0.7,1.9-1.7,3.5-3,4.8s-2.9,2.4-4.7,3.2c-1.9,0.8-3.9,1.1-6.3,1.1c-2.3,0-4.4-0.4-6.3-1.1
			c-1.9-0.8-3.4-1.8-4.7-3.2c-1.3-1.4-2.3-3-3-4.8c-0.7-1.9-1-3.9-1-6V17.9h5.5v22.5c0,1.5,0.2,2.9,0.6,4.2c0.4,1.3,1,2.4,1.9,3.3
			c0.8,0.9,1.8,1.6,3,2.1C304.2,50.6,305.6,50.8,307.1,50.8z"/>
		<path class="st1" d="M359.8,55.2h-4.9c-1,0-1.7-0.4-2.2-1.2l-9.2-12.9c-0.3-0.4-0.6-0.7-1-0.9c-0.3-0.2-0.9-0.3-1.6-0.3h-3.6v15.3
			h-5.5V17.9h10.8c2.4,0,4.5,0.2,6.2,0.7s3.2,1.2,4.3,2.1s2,2,2.5,3.3s0.8,2.7,0.8,4.3c0,1.3-0.2,2.5-0.6,3.7
			c-0.4,1.2-1,2.2-1.8,3.1s-1.7,1.7-2.8,2.3c-1.1,0.7-2.4,1.2-3.8,1.5c0.7,0.4,1.3,1,1.8,1.7L359.8,55.2z M342.4,35.9
			c1.4,0,2.7-0.2,3.8-0.5s2-0.8,2.7-1.5s1.3-1.4,1.6-2.3c0.4-0.9,0.5-1.8,0.5-2.9c0-2.1-0.7-3.8-2.1-4.9c-1.4-1.1-3.5-1.6-6.3-1.6
			h-5.2v13.7H342.4z"/>
		<path class="st1" d="M371.2,55.2h-5.6V17.9h5.6V55.2z"/>
		<path class="st1" d="M406.9,22.6H395v32.7h-5.5V22.6h-11.9V18h29.2v4.6H406.9z"/>
		<path class="st1" d="M427.8,40.5v14.8h-5.5V40.5L408.6,18h4.9c0.5,0,0.9,0.1,1.2,0.4c0.3,0.2,0.5,0.5,0.7,0.9l8.1,13.9
			c0.3,0.6,0.6,1.2,0.9,1.8c0.3,0.6,0.5,1.1,0.7,1.7c0.2-0.6,0.4-1.1,0.7-1.7s0.5-1.2,0.9-1.8l8.1-13.9c0.2-0.3,0.4-0.6,0.7-0.9
			s0.7-0.4,1.2-0.4h4.9L427.8,40.5z"/>
		<path class="st1" d="M491.3,55.2h-4.9c-0.6,0-1-0.1-1.3-0.2s-0.7-0.4-1.1-0.8l-3.5-3.5c-1.6,1.5-3.5,2.7-5.6,3.6s-4.4,1.3-6.9,1.3
			c-1.4,0-2.8-0.2-4.1-0.7s-2.5-1.2-3.6-2.1s-1.9-2-2.6-3.3c-0.6-1.3-1-2.7-1-4.4c0-1.2,0.2-2.3,0.6-3.4s1-2.1,1.7-3
			s1.6-1.7,2.5-2.5c1-0.7,2-1.4,3.2-1.9c-1-1.3-1.8-2.6-2.2-3.9c-0.5-1.3-0.7-2.5-0.7-3.9c0-1.3,0.2-2.5,0.7-3.6s1.1-2.1,2-2.9
			s1.9-1.5,3.2-2s2.7-0.7,4.2-0.7c1.4,0,2.7,0.2,3.8,0.7c1.2,0.4,2.1,1,3,1.8c0.8,0.7,1.5,1.6,2,2.6s0.7,2,0.8,3l-3.2,0.6
			c-0.6,0.1-1.1-0.1-1.4-0.9c-0.1-0.5-0.3-0.9-0.6-1.4s-0.6-0.9-1-1.3s-0.9-0.7-1.5-0.9c-0.6-0.2-1.2-0.4-2-0.4s-1.6,0.1-2.2,0.4
			c-0.7,0.3-1.2,0.7-1.7,1.1c-0.5,0.5-0.8,1-1.1,1.7c-0.3,0.6-0.4,1.3-0.4,2.1c0,0.6,0.1,1.1,0.2,1.7c0.1,0.5,0.4,1.1,0.6,1.6
			c0.3,0.5,0.7,1.1,1.1,1.7c0.4,0.6,1,1.2,1.6,1.8L480.4,44c0.6-1.1,1.2-2.3,1.5-3.6s0.6-2.5,0.8-3.8c0-0.3,0.1-0.6,0.3-0.8
			s0.4-0.3,0.8-0.3h3.1c0,2.1-0.3,4.1-1,6.1s-1.5,3.8-2.6,5.5L491.3,55.2z M467,37.1c-1.7,1-3,2.1-3.8,3.4s-1.3,2.7-1.3,4.3
			c0,1.1,0.2,2,0.6,2.9c0.4,0.8,0.9,1.5,1.6,2.1s1.4,1,2.2,1.3s1.7,0.4,2.6,0.4c1.8,0,3.5-0.3,5-1c1.5-0.6,2.8-1.5,3.9-2.6L467,37.1
			z"/>
		<path class="st1" d="M530.7,24c-0.2,0.3-0.4,0.5-0.5,0.6c-0.2,0.1-0.4,0.2-0.7,0.2s-0.7-0.1-1.1-0.4c-0.4-0.3-0.9-0.6-1.5-1
			s-1.3-0.7-2.1-1s-1.8-0.4-3-0.4c-1.1,0-2,0.1-2.9,0.4c-0.8,0.3-1.5,0.7-2.1,1.2s-1,1.1-1.3,1.7c-0.3,0.7-0.4,1.4-0.4,2.2
			c0,1,0.3,1.8,0.8,2.5s1.2,1.2,2,1.7c0.8,0.5,1.8,0.9,2.8,1.2c1.1,0.3,2.1,0.7,3.2,1.1c1.1,0.4,2.2,0.8,3.2,1.3
			c1.1,0.5,2,1.1,2.8,1.8c0.8,0.7,1.5,1.6,2,2.7s0.8,2.4,0.8,3.9c0,1.6-0.3,3.2-0.8,4.6c-0.6,1.4-1.4,2.7-2.5,3.8s-2.4,1.9-4,2.5
			s-3.3,0.9-5.3,0.9c-1.2,0-2.4-0.1-3.5-0.4c-1.1-0.2-2.2-0.6-3.2-1s-1.9-0.9-2.8-1.5c-0.9-0.6-1.7-1.3-2.4-2l1.6-2.6
			c0.2-0.2,0.3-0.4,0.6-0.5c0.2-0.1,0.5-0.2,0.7-0.2c0.4,0,0.8,0.2,1.3,0.6s1.1,0.8,1.8,1.3s1.5,0.9,2.5,1.3s2.2,0.6,3.6,0.6
			c1.1,0,2.2-0.2,3.1-0.5c0.9-0.3,1.7-0.7,2.3-1.3c0.6-0.6,1.1-1.2,1.4-2c0.3-0.8,0.5-1.7,0.5-2.6c0-1.1-0.3-2-0.8-2.7
			s-1.2-1.3-2-1.7c-0.8-0.5-1.8-0.9-2.8-1.2c-1.1-0.3-2.1-0.7-3.2-1c-1.1-0.4-2.2-0.8-3.2-1.2s-2-1.1-2.8-1.8
			c-0.8-0.8-1.5-1.7-2-2.8c-0.5-1.1-0.8-2.5-0.8-4.2c0-1.3,0.3-2.6,0.8-3.9s1.3-2.4,2.3-3.3c1-1,2.2-1.7,3.7-2.3
			c1.5-0.6,3.1-0.9,5-0.9c2.1,0,4,0.3,5.8,1s3.3,1.6,4.6,2.9L530.7,24z"/>
		<path class="st1" d="M563.9,50.8v4.5h-23.1V18h23.1v4.5h-17.6v11.8h14.1v4.3h-14.1v12.2H563.9z"/>
		<path class="st1" d="M599.7,55.2h-4.9c-1,0-1.7-0.4-2.2-1.2l-9.2-12.9c-0.3-0.4-0.6-0.7-1-0.9c-0.3-0.2-0.9-0.3-1.6-0.3h-3.6v15.3
			h-5.5V17.9h10.8c2.4,0,4.5,0.2,6.2,0.7s3.2,1.2,4.3,2.1s2,2,2.5,3.3s0.8,2.7,0.8,4.3c0,1.3-0.2,2.5-0.6,3.7
			c-0.4,1.1-1,2.2-1.8,3.1s-1.7,1.7-2.8,2.3c-1.1,0.7-2.4,1.2-3.8,1.5c0.7,0.4,1.3,1,1.8,1.7L599.7,55.2z M582.3,35.9
			c1.4,0,2.7-0.2,3.8-0.5s2-0.8,2.7-1.5c0.7-0.6,1.3-1.4,1.6-2.3c0.3-0.9,0.5-1.8,0.5-2.9c0-2.1-0.7-3.8-2.1-4.9
			c-1.4-1.1-3.5-1.6-6.3-1.6h-5.2v13.7H582.3z"/>
		<path class="st1" d="M635.2,18L620,55.3h-5L600,18h4.4c0.5,0,0.9,0.1,1.2,0.4c0.3,0.2,0.5,0.6,0.7,0.9l10.1,25.3
			c0.2,0.6,0.5,1.3,0.7,2.1c0.2,0.7,0.4,1.5,0.6,2.3c0.2-0.8,0.4-1.6,0.6-2.3c0.2-0.7,0.4-1.4,0.7-2.1l10-25.3
			c0.1-0.3,0.3-0.6,0.7-0.9s0.7-0.4,1.2-0.4H635.2z"/>
		<path class="st1" d="M646.5,55.2h-5.6V17.9h5.6V55.2z"/>
		<path class="st1" d="M682.8,47.2c0.3,0,0.6,0.1,0.8,0.4l2.2,2.4c-1.5,1.8-3.4,3.2-5.6,4.2c-2.2,1-4.8,1.5-7.9,1.5
			c-2.7,0-5.1-0.5-7.3-1.4s-4.1-2.2-5.6-3.9c-1.5-1.7-2.7-3.7-3.6-6s-1.3-4.9-1.3-7.7c0-2.8,0.4-5.4,1.3-7.7c0.9-2.3,2.1-4.3,3.8-6
			s3.5-3,5.8-3.9c2.2-0.9,4.7-1.4,7.4-1.4c2.6,0,5,0.4,7.1,1.3s3.9,2,5.4,3.5l-1.8,2.6c-0.1,0.2-0.3,0.3-0.5,0.5
			c-0.2,0.1-0.4,0.2-0.7,0.2s-0.7-0.2-1.2-0.5c-0.4-0.3-1-0.7-1.7-1.1s-1.6-0.8-2.7-1.1c-1.1-0.3-2.4-0.5-3.9-0.5
			c-1.9,0-3.5,0.3-5.1,1c-1.5,0.6-2.9,1.6-4,2.8c-1.1,1.2-2,2.7-2.6,4.5c-0.6,1.8-0.9,3.8-0.9,6c0,2.3,0.3,4.3,1,6.1
			s1.5,3.3,2.6,4.5s2.5,2.2,4,2.8c1.5,0.6,3.2,1,4.9,1c1.1,0,2-0.1,2.9-0.2s1.6-0.3,2.4-0.6c0.7-0.3,1.4-0.6,2-1s1.3-0.9,1.9-1.5
			c0.1-0.1,0.3-0.2,0.4-0.3C682.4,47.3,682.6,47.2,682.8,47.2z"/>
		<path class="st1" d="M715.5,50.8v4.5h-23.1V18h23.1v4.5h-17.6v11.8H712v4.3h-14.1v12.2H715.5z"/>
		<path class="st1" d="M228.1,117.6h-4.3c-0.5,0-0.9-0.1-1.2-0.4c-0.3-0.2-0.5-0.6-0.7-0.9l-3.3-8.6h-16.4l-3.3,8.6
			c-0.1,0.3-0.3,0.6-0.7,0.9c-0.3,0.3-0.7,0.4-1.2,0.4h-4.3l14.9-37.3h5.6L228.1,117.6z M217.2,103.7l-5.5-14.5
			c-0.4-1-0.8-2.2-1.2-3.7c-0.2,0.7-0.4,1.4-0.6,2.1c-0.2,0.6-0.4,1.2-0.6,1.7l-5.5,14.4H217.2z"/>
		<path class="st1" d="M263.2,99.4v14.5c-1.9,1.4-3.9,2.4-6,3c-2.1,0.7-4.4,1-7,1c-3,0-5.7-0.5-8.2-1.4c-2.4-0.9-4.5-2.2-6.2-3.9
			c-1.7-1.7-3-3.7-4-6c-0.9-2.3-1.4-4.9-1.4-7.7c0-2.8,0.4-5.4,1.3-7.8s2.2-4.4,3.8-6c1.7-1.7,3.7-3,6-3.9c2.4-0.9,5-1.4,8-1.4
			c1.5,0,2.9,0.1,4.1,0.3c1.3,0.2,2.5,0.5,3.5,1c1.1,0.4,2.1,0.9,3,1.5s1.8,1.2,2.6,2l-1.6,2.5c-0.2,0.4-0.6,0.6-1,0.8
			c-0.4,0.1-0.8,0-1.3-0.3s-0.9-0.6-1.5-0.9c-0.5-0.3-1.2-0.7-1.9-1c-0.8-0.3-1.6-0.5-2.6-0.8c-1-0.2-2.2-0.3-3.6-0.3
			c-2,0-3.9,0.3-5.5,1s-3,1.6-4.2,2.9c-1.2,1.2-2.1,2.7-2.7,4.5s-0.9,3.7-0.9,5.9c0,2.3,0.3,4.3,1,6.1c0.7,1.8,1.6,3.3,2.8,4.6
			c1.2,1.3,2.7,2.2,4.4,2.9c1.7,0.7,3.6,1,5.8,1c0.8,0,1.6,0,2.3-0.1s1.4-0.2,2.1-0.4c0.7-0.2,1.3-0.4,1.9-0.6
			c0.6-0.3,1.2-0.5,1.8-0.9v-7.8h-5.5c-0.3,0-0.6-0.1-0.8-0.3c-0.2-0.2-0.3-0.5-0.3-0.8v-3.1h11.8V99.4z"/>
		<path class="st1" d="M294.9,113.1v4.5h-23.1V80.3h23.1v4.5h-17.6v11.8h14.1v4.3h-14.1v12.2H294.9z"/>
		<path class="st1" d="M333.3,80.3v37.3h-2.8c-0.4,0-0.8-0.1-1.1-0.2c-0.3-0.2-0.6-0.4-0.9-0.8l-21.1-27.2c0,0.5,0.1,0.9,0.1,1.4
			s0,0.9,0,1.3v25.6h-4.9V80.4h2.9c0.5,0,0.8,0.1,1.1,0.2c0.2,0.1,0.5,0.4,0.8,0.8l21.1,27.3c-0.1-0.5-0.1-1-0.1-1.5s0-0.9,0-1.3
			V80.5h4.9V80.3z"/>
		<path class="st1" d="M369.6,109.6c0.3,0,0.6,0.1,0.8,0.4l2.2,2.4c-1.5,1.8-3.4,3.2-5.6,4.2c-2.2,1-4.8,1.5-7.9,1.5
			c-2.7,0-5.1-0.5-7.3-1.4s-4.1-2.2-5.6-3.9c-1.5-1.7-2.7-3.7-3.6-6s-1.3-4.9-1.3-7.7c0-2.8,0.4-5.4,1.3-7.7c0.9-2.3,2.1-4.3,3.8-6
			c1.6-1.7,3.5-3,5.8-3.9c2.2-0.9,4.7-1.4,7.4-1.4c2.6,0,5,0.4,7.1,1.3s3.9,2,5.4,3.5l-1.8,2.6c-0.1,0.2-0.3,0.3-0.5,0.5
			c-0.2,0.1-0.4,0.2-0.7,0.2s-0.7-0.2-1.2-0.5s-1-0.7-1.7-1.1s-1.6-0.8-2.7-1.1c-1.1-0.3-2.4-0.5-3.9-0.5c-1.9,0-3.5,0.3-5.1,1
			c-1.5,0.6-2.9,1.6-4,2.8c-1.1,1.2-2,2.7-2.6,4.5s-0.9,3.8-0.9,6c0,2.3,0.3,4.3,1,6.1c0.6,1.8,1.5,3.3,2.6,4.5s2.4,2.2,4,2.8
			c1.5,0.6,3.2,1,4.9,1c1.1,0,2-0.1,2.9-0.2s1.6-0.3,2.4-0.6c0.7-0.3,1.4-0.6,2-1s1.3-0.9,1.9-1.5c0.1-0.1,0.3-0.2,0.4-0.3
			C369.2,109.6,369.4,109.6,369.6,109.6z"/>
		<path class="st1" d="M393.7,102.8v14.8h-5.5v-14.8l-13.7-22.5h4.9c0.5,0,0.9,0.1,1.2,0.4c0.3,0.2,0.5,0.5,0.7,0.9l8.1,13.9
			c0.3,0.6,0.6,1.2,0.9,1.8c0.3,0.6,0.5,1.1,0.7,1.7c0.2-0.6,0.4-1.1,0.7-1.7s0.5-1.2,0.9-1.8l8.1-13.9c0.2-0.3,0.4-0.6,0.7-0.9
			s0.7-0.4,1.2-0.4h4.9L393.7,102.8z"/>
	</g>
</g>
</svg>
